<?xml version="1.0" encoding="utf-8"?>
<!-- Generator: Adobe Illustrator 22.1.0, SVG Export Plug-In . SVG Version: 6.00 Build 0)  -->
<svg version="1.1" id="Layer_1" xmlns="http://www.w3.org/2000/svg" xmlns:xlink="http://www.w3.org/1999/xlink" x="0px" y="0px"
	 viewBox="0 0 600 648.3" style="enable-background:new 0 0 600 648.3;" xml:space="preserve">
<style type="text/css">
	.st0{fill:#5A4A42;}
	.st1{fill:#9A8479;}
	.st2{fill:#716558;}
	.st3{fill:#A9D5F1;}
	.st4{fill:#8CBF47;}
	.st5{fill:#CBE0F4;}
	.st6{fill:#71AC43;}
</style>
<g>
	<g>
		<path class="st0" d="M328.4,421l-58.1-0.6c-2,0-3.7-1.7-3.6-3.7l0.1-13.6c0-2,1.7-3.7,3.7-3.6l58.1,0.6c2,0,3.7,1.7,3.6,3.7
			l-0.1,13.6C332.1,419.4,330.4,421,328.4,421z"/>
	</g>
	<g>
		<path class="st1" d="M360,129.3l-115.3-1.1c-3.6,0-6.5-3-6.4-6.6l0.3-28.4c0-3.6,3-6.5,6.6-6.4l115.3,1.1c3.6,0,6.5,3,6.4,6.6
			l-0.3,28.4C366.6,126.5,363.6,129.3,360,129.3z"/>
	</g>
	<g>
		<path class="st2" d="M429.9,140.4l-255.3-2.5c-2,0-3.7-1.7-3.7-3.7l0.2-23.7c0-2,1.7-3.7,3.7-3.7l255.3,2.5c2,0,3.7,1.7,3.7,3.7
			l-0.2,23.7C433.6,138.7,431.9,140.4,429.9,140.4z"/>
	</g>
	<g>
		<polygon class="st3" points="171.4,129.6 147.1,129.4 181.8,169 182,144 		"/>
	</g>
	<g>
		<path class="st3" d="M421.9,163.5c0,0,49.3,3.3,55.6,13.4c6.3,10.1-11.4,139.2-21.6,166.3c-10.3,27.1-70.4,37.2-70.4,37.2
			l7.5-39.9c0,0,35.8-3.2,46.8-35.3c11-32.1,16.3-101.4,14.9-107.1c-1.4-5.7-36.4-6-36.4-6L421.9,163.5z"/>
	</g>
	<g>
		<path class="st1" d="M405.2,551l-214.3-2.1c-5.3-0.1-9.5-4.4-9.5-9.7l29.8-120.3c0.1-5.3,4.4-9.5,9.7-9.5L378,411
			c5.3,0.1,9.5,4.4,9.5,9.7l27.4,120.9C414.8,546.8,410.5,551.1,405.2,551z"/>
	</g>
	<g>
		
			<ellipse transform="matrix(0.9032 -0.4292 0.4292 0.9032 -174.1693 174.0652)" class="st2" cx="298.8" cy="473.2" rx="31.4" ry="31.4"/>
	</g>
	<g>
		<path class="st4" d="M301.7,467.5l-5.6-0.1c-0.8,0-1.5-0.7-1.5-1.5l0.2-18.4c0-0.8,0.7-1.5,1.5-1.5l5.6,0.1c0.8,0,1.5,0.7,1.5,1.5
			l-0.2,18.4C303.2,466.8,302.5,467.5,301.7,467.5z"/>
	</g>
	<g>
		<path class="st0" d="M301.2,435.6l-4,0c-0.6,0-1.1-0.5-1.1-1.1l0.1-12.8c0-0.6,0.5-1.1,1.1-1.1l4,0c0.6,0,1.1,0.5,1.1,1.1
			l-0.1,12.8C302.3,435.2,301.8,435.7,301.2,435.6z"/>
	</g>
	<g>
		<path class="st0" d="M300.3,528.2l-4,0c-0.6,0-1.1-0.5-1.1-1.1l0.1-12.8c0-0.6,0.5-1.1,1.1-1.1l4,0c0.6,0,1.1,0.5,1.1,1.1
			l-0.1,12.8C301.4,527.7,300.9,528.2,300.3,528.2z"/>
	</g>
	<g>
		<path class="st0" d="M327.9,448.7l-2.8-2.9c-0.4-0.4-0.4-1.1,0-1.5l9.1-9c0.4-0.4,1.1-0.4,1.5,0l2.8,2.9c0.4,0.4,0.4,1.1,0,1.5
			l-9.1,9C329,449.1,328.3,449.1,327.9,448.7z"/>
	</g>
	<g>
		<path class="st0" d="M261.8,513.5l-2.8-2.9c-0.4-0.4-0.4-1.1,0-1.5l9.1-9c0.4-0.4,1.1-0.4,1.5,0l2.8,2.9c0.4,0.4,0.4,1.1,0,1.5
			l-9.1,9C262.9,513.9,262.3,513.9,261.8,513.5z"/>
	</g>
	<g>
		<path class="st0" d="M337.6,476.8l0-4c0-0.6,0.5-1.1,1.1-1.1l12.8,0.1c0.6,0,1.1,0.5,1.1,1.1l0,4c0,0.6-0.5,1.1-1.1,1.1l-12.8-0.1
			C338.1,477.9,337.6,477.4,337.6,476.8z"/>
	</g>
	<g>
		<path class="st0" d="M245.1,475.9l0-4c0-0.6,0.5-1.1,1.1-1.1L259,471c0.6,0,1.1,0.5,1.1,1.1l0,4c0,0.6-0.5,1.1-1.1,1.1l-12.8-0.1
			C245.5,477,245.1,476.5,245.1,475.9z"/>
	</g>
	<g>
		<path class="st0" d="M324.6,503.5l2.9-2.8c0.4-0.4,1.1-0.4,1.5,0l9,9.1c0.4,0.4,0.4,1.1,0,1.5l-2.9,2.8c-0.4,0.4-1.1,0.4-1.5,0
			l-9-9.1C324.1,504.6,324.1,503.9,324.6,503.5z"/>
	</g>
	<g>
		<path class="st0" d="M259.8,437.5l2.9-2.8c0.4-0.4,1.1-0.4,1.5,0l9,9.1c0.4,0.4,0.4,1.1,0,1.5l-2.9,2.8c-0.4,0.4-1.1,0.4-1.5,0
			l-9-9.1C259.3,438.5,259.3,437.9,259.8,437.5z"/>
	</g>
	<g>
		<path class="st0" d="M418.7,561.5l-241.4-2.4c-2,0-3.6-1.7-3.6-3.7l0.1-13.5c0-2,1.7-3.6,3.7-3.6l241.4,2.4c2,0,3.6,1.7,3.6,3.7
			l-0.1,13.5C422.3,559.9,420.7,561.6,418.7,561.5z"/>
	</g>
	<g>
		<path class="st5" d="M171.4,129.6c0,0,25.4,248.3,40.3,264.1c14.9,15.8,160,13,172.9,8.1c12.9-4.9,49.1-269.7,49.1-269.7
			L171.4,129.6z"/>
	</g>
	<g>
		<path class="st6" d="M402,159.6c-12.4-13.2-39.9-11.7-61.1-2.3c-21.2,9.4-77.6,13.2-102.9-1.3c-18.3-10.5-39.4-3.1-49.8,1.8
			c4.8,45.3,23,209,34.2,220.9c13.1,13.9,140.8,11.5,152.2,7.2c9.6-3.6,33.8-170.1,41.1-222.1C410.6,164.4,405.6,163.5,402,159.6z"
			/>
	</g>
	<g>
		<g>
			<path class="st4" d="M346.9,154.9c-10.7,24.8-15.4,56.9-13.1,87.1c2.4,31.1,19.6,58.5-6.7,100.4c-12.5,19.9-17.1,35.7-18.5,46.9
				c12.2,0.1,24-0.1,34.3-0.5c1.9-14.5,12.3-33.5,21.6-59.2c14-38.5,7.1-64.6,3.9-108.9c-2.4-33.5,13.2-58.3,20.9-68.4
				C377.2,148.3,361.2,149.9,346.9,154.9z"/>
		</g>
		<g>
			<path class="st4" d="M240.5,357.2c4.1-30.4,7-44.2-9.3-99.4c-12-40.7-8.2-85.5-5.3-106.2c-14.8-3-29.6,2.4-37.7,6.2
				c4.8,45.3,23,209,34.2,220.9c3,3.2,12.3,5.6,24.9,7.2C242.4,379.5,238.8,370.1,240.5,357.2z"/>
		</g>
	</g>
</g>
</svg>
